<svg width="260" height="80" viewBox="0 0 260 80" fill="none" xmlns="http://www.w3.org/2000/svg">
  <!-- Logo icon -->
  <g transform="translate(10, 10)">
    <!-- Main tag shape with speech bubble tail -->
    <path d="M15 0 L45 0 C53.284 0 60 6.716 60 15 L60 35 C60 43.284 53.284 50 45 50 L25 50 L10 60 L15 50 C6.716 50 0 43.284 0 35 L0 15 C0 6.716 6.716 0 15 0 Z" fill="url(#gradient1)"/>
    
    <!-- Percentage symbol -->
    <circle cx="18" cy="18" r="4" fill="white"/>
    <circle cx="42" cy="32" r="4" fill="white"/>
    <path d="M15 35 L45 15" stroke="white" stroke-width="4" stroke-linecap="round"/>
    
    <!-- Small decorative circle -->
    <circle cx="45" cy="12" r="3" fill="white" opacity="0.9"/>
  </g>
  
  <!-- Gradient definitions -->
  <defs>
    <linearGradient id="gradient1" x1="0%" y1="0%" x2="100%" y2="100%">
      <stop offset="0%" style="stop-color:#6366f1;stop-opacity:1" />
      <stop offset="50%" style="stop-color:#8b5cf6;stop-opacity:1" />
      <stop offset="100%" style="stop-color:#f97316;stop-opacity:1" />
    </linearGradient>
  </defs>
  
  <!-- Text "Savela" -->
  <text x="90" y="50" font-family="Inter, -apple-system, BlinkMacSystemFont, 'Segoe UI', sans-serif" font-size="36" font-weight="800" fill="#2d3748">Savela</text>
</svg> 